<mxfile host="app.diagrams.net" modified="2024-03-12T23:11:06.743Z" agent="Mozilla/5.0 (Windows NT 10.0; Win64; x64) AppleWebKit/537.36 (KHTML, like Gecko) Chrome/122.0.0.0 Safari/537.36" etag="qKCwTKQP4duTVZWyQOFg" version="24.0.5" type="github">
  <diagram name="Page-1" id="JQofYEXU-NoQVEOPvFRB">
    <mxGraphModel dx="344" dy="174" grid="0" gridSize="10" guides="1" tooltips="1" connect="1" arrows="1" fold="1" page="1" pageScale="1" pageWidth="850" pageHeight="1100" math="0" shadow="0">
      <root>
        <mxCell id="0" />
        <mxCell id="1" parent="0" />
        <mxCell id="aOmEqhJqzcy8wnbz2JpO-2" value="Processo de carregamento&lt;div style=&quot;font-size: 20px;&quot;&gt;&lt;span style=&quot;font-weight: 400; font-size: 20px;&quot;&gt;Tipos de documentos e formas de entrada&lt;/span&gt;&lt;/div&gt;" style="text;html=1;align=left;verticalAlign=middle;whiteSpace=wrap;rounded=0;fontStyle=1;fontSize=20;" vertex="1" parent="1">
          <mxGeometry x="10" y="10" width="400" height="59.31" as="geometry" />
        </mxCell>
        <mxCell id="aOmEqhJqzcy8wnbz2JpO-13" value="" style="group" vertex="1" connectable="0" parent="1">
          <mxGeometry x="610" y="10" width="240" height="60" as="geometry" />
        </mxCell>
        <mxCell id="aOmEqhJqzcy8wnbz2JpO-3" value="LEGENDA" style="text;html=1;align=left;verticalAlign=middle;whiteSpace=wrap;rounded=0;fontStyle=0;fontSize=13;" vertex="1" parent="aOmEqhJqzcy8wnbz2JpO-13">
          <mxGeometry x="10" width="70" height="21.336000000000002" as="geometry" />
        </mxCell>
        <mxCell id="aOmEqhJqzcy8wnbz2JpO-4" value="" style="image;aspect=fixed;html=1;points=[];align=center;fontSize=12;image=img/lib/azure2/identity/App_Registrations.svg;" vertex="1" parent="aOmEqhJqzcy8wnbz2JpO-13">
          <mxGeometry x="10" y="39.23301920341394" width="19.711948790896162" height="20.03230203888099" as="geometry" />
        </mxCell>
        <mxCell id="aOmEqhJqzcy8wnbz2JpO-5" value="Transações / Aplicativos" style="text;html=1;align=left;verticalAlign=middle;whiteSpace=wrap;rounded=0;fontSize=7;fontStyle=1" vertex="1" parent="aOmEqhJqzcy8wnbz2JpO-13">
          <mxGeometry x="35.71" y="38.58117022285443" width="94.29" height="21.336000000000002" as="geometry" />
        </mxCell>
        <mxCell id="aOmEqhJqzcy8wnbz2JpO-6" value="" style="ellipse;whiteSpace=wrap;html=1;aspect=fixed;strokeWidth=2;fillColor=#1ba1e2;strokeColor=#006EAF;fontColor=#ffffff;" vertex="1" parent="aOmEqhJqzcy8wnbz2JpO-13">
          <mxGeometry x="134.44444444444443" y="42.433143669985775" width="13.632053105737317" height="13.632053105737317" as="geometry" />
        </mxCell>
        <mxCell id="aOmEqhJqzcy8wnbz2JpO-7" value="" style="ellipse;whiteSpace=wrap;html=1;aspect=fixed;fillColor=#f8cecc;strokeColor=#b85450;strokeWidth=2;gradientColor=#ea6b66;" vertex="1" parent="aOmEqhJqzcy8wnbz2JpO-13">
          <mxGeometry x="134.44444444444443" y="13.488904694167848" width="13.632053105737317" height="13.632053105737317" as="geometry" />
        </mxCell>
        <mxCell id="aOmEqhJqzcy8wnbz2JpO-8" value="Abas" style="text;html=1;align=left;verticalAlign=middle;whiteSpace=wrap;rounded=0;fontSize=7;fontStyle=1" vertex="1" parent="aOmEqhJqzcy8wnbz2JpO-13">
          <mxGeometry x="153.11111111111111" y="9.636367946894259" width="35.55555555555556" height="21.337126600284495" as="geometry" />
        </mxCell>
        <mxCell id="aOmEqhJqzcy8wnbz2JpO-9" value="Botões" style="text;html=1;align=left;verticalAlign=middle;whiteSpace=wrap;rounded=0;fontSize=7;fontStyle=1" vertex="1" parent="aOmEqhJqzcy8wnbz2JpO-13">
          <mxGeometry x="153.11111111111111" y="38.580606922712185" width="35.55555555555556" height="21.337126600284495" as="geometry" />
        </mxCell>
        <mxCell id="aOmEqhJqzcy8wnbz2JpO-11" value="SAP S4" style="rounded=1;whiteSpace=wrap;html=1;fontSize=7;fillColor=#dae8fc;strokeColor=#6c8ebf;fontStyle=1" vertex="1" parent="aOmEqhJqzcy8wnbz2JpO-13">
          <mxGeometry x="188.67" y="11.982931247036507" width="41.33" height="16.644" as="geometry" />
        </mxCell>
        <mxCell id="aOmEqhJqzcy8wnbz2JpO-14" value="SAP TM" style="rounded=1;whiteSpace=wrap;html=1;fontSize=7;fillColor=#fff2cc;strokeColor=#d6b656;fontStyle=1" vertex="1" parent="aOmEqhJqzcy8wnbz2JpO-13">
          <mxGeometry x="188.67" y="40.92717022285443" width="41.33" height="16.644" as="geometry" />
        </mxCell>
      </root>
    </mxGraphModel>
  </diagram>
</mxfile>
